<svg width="22" height="16" viewBox="0 0 22 16" fill="#6C5FBC" xmlns="http://www.w3.org/2000/svg">
<path d="M10.8395 0.223633C11.9873 0.223633 13.0893 0.400781 14.1205 0.702812C14.3188 0.760917 14.3779 1.00922 14.2318 1.15539L13.3151 2.07208C13.2463 2.14085 13.1467 2.16839 13.0519 2.14659C12.341 1.98305 11.5999 1.89125 10.8395 1.89125C8.29748 1.89125 5.96984 2.91731 4.27208 4.22033C3.42504 4.87042 2.75554 5.57398 2.30513 6.22302C1.83917 6.89444 1.66762 7.41964 1.66762 7.72793C1.66762 8.03622 1.83917 8.56142 2.30513 9.23284C2.69849 9.79966 3.25895 10.4081 3.95884 10.9861C4.08764 11.0925 4.09991 11.2872 3.98179 11.4054L3.19366 12.1935C3.09326 12.2939 2.93305 12.3027 2.82425 12.2115C2.05384 11.5654 1.41084 10.8691 0.935095 10.1836C0.388412 9.39587 0 8.53139 0 7.72793C0 6.92447 0.388412 6.05999 0.935095 5.27224C1.49731 4.46211 2.29312 3.63701 3.25676 2.89742C5.18036 1.42107 7.85559 0.223633 10.8395 0.223633Z"/>
<path d="M5.70018 14.0465C7.21917 14.7615 8.96868 15.2322 10.8395 15.2322C13.8235 15.2322 16.4987 14.0348 18.4223 12.5584C19.386 11.8188 20.1818 10.9937 20.744 10.1836C21.2907 9.39587 21.6791 8.53139 21.6791 7.72793C21.6791 6.92447 21.2907 6.05999 20.744 5.27224C20.1818 4.46211 19.386 3.63701 18.4223 2.89742C18.1309 2.67376 17.8222 2.45649 17.4978 2.24882L16.2866 3.46007C16.6842 3.69753 17.0588 3.95311 17.407 4.22033C18.254 4.87042 18.9235 5.57398 19.374 6.22302C19.8399 6.89444 20.0115 7.41964 20.0115 7.72793C20.0115 8.03622 19.8399 8.56142 19.374 9.23284C18.9235 9.88188 18.254 10.5854 17.407 11.2355C15.7092 12.5385 13.3816 13.5646 10.8395 13.5646C9.46333 13.5646 8.14996 13.2639 6.96536 12.7813L5.70018 14.0465Z"/>
<path fill-rule="evenodd" clip-rule="evenodd" d="M15.0086 7.72793C15.0086 6.87821 14.7544 6.08786 14.3179 5.42879C14.3179 5.42879 13.802 4.59456 13.2659 4.22033C12.7477 3.85858 11.7984 3.66768 11.7357 3.65535C11.7334 3.6549 11.7313 3.65446 11.729 3.65397C11.4424 3.59168 11.1448 3.55888 10.8395 3.55888C8.53703 3.55888 6.67049 5.42542 6.67049 7.72793C6.67049 8.03213 6.70307 8.32873 6.76493 8.61441C6.76586 8.61869 6.76657 8.6223 6.76732 8.62661C6.78284 8.7159 6.97883 9.81486 7.29413 10.2294C7.5 10.5 8.5404 11.2063 8.5404 11.2063C9.19947 11.6428 9.98982 11.897 10.8395 11.897C13.142 11.897 15.0086 10.0304 15.0086 7.72793ZM10.8395 10.2294C10.4534 10.2294 10.0876 10.1419 9.76108 9.98558C9.76108 9.98558 8.88783 9.23284 8.65615 8.62082C8.42447 8.00881 8.4737 6.91345 8.4737 6.91345C8.7237 6.18713 9.29874 5.61209 10.0251 5.36209C10.0251 5.36209 11.1108 5.18627 11.7324 5.42879C12.3986 5.68867 13.0972 6.64947 13.0972 6.64947C13.2535 6.97601 13.341 7.34175 13.341 7.72793C13.341 9.10943 12.221 10.2294 10.8395 10.2294Z"/>
</svg>
